<svg xmlns="http://www.w3.org/2000/svg" width="93.333" height="47.467" preserveAspectRatio="xMidYMid meet" version="1.0" viewBox="0 0 700 356"><g fill="#fff" stroke="none"><path d="M2816 3178 c-3 -7 -6 -31 -9 -53 -2 -23 -16 -65 -29 -95 -14 -30 -29 -66 -33 -80 -4 -14 -20 -47 -35 -75 -15 -27 -44 -93 -65 -145 -21 -52 -45 -102 -52 -111 -7 -8 -13 -19 -13 -22 0 -4 -20 -49 -45 -102 l-44 -94 -58 -16 c-100 -28 -439 -144 -531 -181 -48 -20 -154 -63 -235 -95 -81 -33 -156 -63 -165 -68 -9 -4 -30 -14 -47 -22 -76 -37 5 -97 166 -124 158 -27 359 -65 449 -85 47 -10 100 -22 118 -25 37 -8 37 -11 -4 -102 -13 -28 -24 -54 -24 -57 0 -3 -11 -30 -25 -60 -14 -30 -25 -57 -25 -60 0 -3 -15 -39 -33 -78 -18 -40 -39 -87 -46 -105 -16 -40 -45 -50 -176 -58 -152 -10 -381 -34 -465 -50 -41 -7 -129 -23 -195 -35 -66 -12 -133 -26 -150 -31 -16 -5 -68 -16 -115 -24 -77 -15 -275 -73 -325 -95 -11 -5 -42 -18 -70 -29 -123 -47 -288 -149 -377 -231 -47 -43 -78 -94 -78 -128 0 -57 73 -133 173 -181 45 -22 102 -42 127 -46 25 -4 70 -13 100 -21 63 -16 238 -40 355 -49 74 -5 122 -11 265 -35 30 -5 100 -14 155 -20 88 -9 162 -21 230 -35 16 -3 20 -12 20 -41 0 -47 23 -57 31 -15 4 18 14 36 23 40 10 6 77 2 171 -10 254 -32 453 -47 634 -49 94 -1 225 -4 291 -6 355 -11 865 0 980 22 84 15 292 66 305 75 8 5 26 14 39 19 48 21 114 76 137 116 19 32 24 55 24 107 0 67 -15 106 -73 192 -34 50 -249 286 -276 304 -14 9 -33 23 -42 31 -56 53 -146 127 -182 150 -23 15 -58 42 -76 60 -33 31 -34 33 -16 46 21 15 16 17 -45 14 -24 -1 -46 7 -70 25 -19 14 -66 42 -105 62 -38 19 -81 43 -95 53 -14 9 -72 41 -130 70 -58 29 -106 53 -108 55 -4 3 -20 110 -26 175 -3 30 -13 120 -22 200 -9 80 -17 232 -17 339 l-2 195 90 23 c230 61 345 85 408 86 64 2 70 0 93 -26 13 -15 26 -40 29 -55 4 -15 11 -47 18 -72 6 -25 10 -48 9 -52 -1 -5 3 -8 8 -8 6 0 10 32 10 78 0 84 -18 130 -61 153 -56 29 -290 -7 -532 -83 -37 -11 -70 -18 -73 -15 -8 8 -7 514 1 580 4 30 4 64 0 76 -7 23 -33 29 -39 9z m4 -220 c1 -108 1 -335 1 -394 l-1 -62 -107 -35 c-95 -31 -141 -42 -165 -38 -8 1 10 55 42 127 137 305 210 454 222 454 4 0 8 -24 8 -52z m5 -556 c3 -31 5 -107 4 -167 -1 -61 3 -169 9 -242 13 -139 15 -156 32 -297 6 -48 9 -90 6 -93 -2 -2 -26 3 -53 13 -198 71 -286 100 -408 136 -77 22 -142 42 -144 44 -4 4 9 37 50 131 11 24 19 45 19 48 0 7 117 269 153 345 35 71 23 65 222 120 104 28 102 29 110 -38z m-359 -58 c-4 -14 -20 -53 -35 -87 -16 -34 -45 -100 -65 -147 -20 -47 -48 -108 -61 -136 -14 -28 -25 -56 -25 -63 0 -16 -37 -88 -49 -96 -9 -5 -91 10 -276 51 -38 8 -124 23 -190 34 -155 24 -295 65 -295 86 0 3 21 14 48 26 26 11 65 28 87 38 22 10 99 41 170 69 72 28 139 55 150 60 44 20 235 91 244 91 5 0 22 5 38 12 37 15 246 86 257 87 4 1 5 -11 2 -25z m-180 -583 c5 -5 43 -16 84 -26 41 -10 91 -24 110 -32 19 -8 69 -25 110 -38 198 -62 298 -103 301 -123 0 -4 2 -14 3 -22 2 -8 6 -59 10 -112 l7 -98 -163 -1 c-90 0 -199 -2 -243 -4 -344 -15 -445 -16 -445 -6 0 10 29 79 57 136 8 16 24 56 35 90 11 33 24 65 28 70 4 6 17 37 30 70 25 65 48 105 59 105 4 0 11 -4 17 -9z m743 -276 c45 -25 83 -45 86 -45 11 0 185 -113 185 -120 0 -5 -270 -6 -336 -1 -12 1 -31 78 -38 159 -4 39 -2 52 8 52 8 0 50 -20 95 -45z m-49 -185 c0 -5 -5 -10 -11 -10 -5 0 -7 5 -4 10 3 6 8 10 11 10 2 0 4 -4 4 -10z m-59 -44 c0 -11 2 -28 4 -36 1 -8 5 -67 9 -130 3 -63 10 -130 15 -148 10 -33 7 -237 -4 -327 -11 -86 -43 -201 -71 -257 -27 -53 -78 -107 -102 -108 -19 0 -11 71 22 194 21 79 24 101 14 108 -16 10 -29 6 -39 -13 -14 -26 -52 -193 -58 -256 -3 -34 -9 -65 -13 -69 -10 -9 -478 -1 -568 11 -19 2 -93 9 -165 15 -113 9 -290 31 -363 46 -19 4 -22 9 -16 27 3 12 12 29 19 37 8 8 48 83 90 165 43 83 92 179 111 215 33 64 73 155 141 320 36 90 80 180 91 192 10 9 301 26 592 34 135 3 246 8 248 9 11 10 42 -11 43 -29z m547 -36 c50 -34 92 -66 92 -71 0 -5 6 -9 14 -9 8 0 16 -4 18 -8 2 -5 23 -24 48 -43 25 -19 54 -43 66 -54 11 -11 54 -52 95 -91 155 -147 265 -284 291 -363 29 -84 -11 -193 -81 -224 -14 -7 -41 -22 -60 -34 -57 -39 -216 -83 -351 -98 -36 -4 -72 -9 -80 -10 -81 -14 -647 -26 -705 -15 l-30 6 30 19 c17 11 34 26 39 33 4 8 17 23 29 35 22 22 81 179 91 242 14 90 18 432 6 535 -24 206 -24 202 -9 211 8 6 99 8 209 6 l195 -4 93 -63z m-1478 19 c0 -6 -13 -37 -29 -68 -15 -31 -32 -67 -36 -81 -4 -14 -22 -56 -40 -95 -18 -38 -45 -97 -60 -130 -40 -90 -204 -418 -215 -432 -6 -7 -10 -16 -10 -20 0 -4 -17 -32 -37 -61 l-36 -53 -76 6 c-42 4 -89 11 -106 16 -16 6 -131 21 -255 34 -290 32 -552 63 -582 69 -175 38 -230 56 -293 98 -140 92 -127 157 59 297 135 102 354 197 601 261 70 18 295 66 425 90 84 16 375 52 520 65 80 6 151 13 158 14 6 0 12 -4 12 -10z" transform="translate(0.000000,356.000000) scale(0.100000,-0.100000)"/><path d="M5667 2373 c-4 -3 -7 -20 -7 -37 -1 -17 -8 -60 -16 -96 -26 -112 -44 -212 -54 -300 -5 -47 -20 -155 -33 -240 -33 -215 -68 -280 -193 -363 -22 -15 -48 -25 -56 -22 -21 8 -46 89 -53 170 -9 101 -13 115 -34 115 -12 0 -21 -10 -26 -27 -6 -26 -33 -93 -58 -141 -16 -34 -74 -82 -97 -82 -31 0 -76 71 -89 140 -7 33 -9 65 -6 70 13 20 -6 51 -28 48 -16 -2 -33 -25 -64 -87 -24 -46 -45 -86 -48 -89 -2 -3 -12 1 -21 9 -14 11 -16 26 -11 91 6 70 5 78 -11 78 -29 0 -42 -21 -42 -67 0 -55 -36 -97 -122 -141 -57 -29 -68 -32 -91 -21 -47 22 -43 41 38 165 42 64 74 122 71 130 -7 18 -51 18 -80 -1 -25 -16 -79 -95 -96 -139 -5 -15 -10 -45 -10 -66 0 -29 -6 -43 -25 -58 -14 -11 -25 -24 -26 -28 0 -5 -16 -22 -36 -38 -44 -37 -49 -30 -58 81 -8 90 -3 182 14 253 6 25 14 61 17 80 7 39 61 173 106 263 31 59 33 92 8 92 -16 0 -63 -89 -105 -196 -14 -37 -42 -97 -62 -135 -20 -38 -49 -94 -64 -124 -70 -132 -177 -280 -217 -299 -30 -14 -60 1 -68 35 -9 36 3 109 22 139 9 13 13 29 9 35 -13 20 -35 9 -63 -32 -50 -72 -160 -158 -201 -158 -50 0 -38 50 30 118 55 56 72 62 101 35 17 -15 18 -15 18 8 0 41 -16 53 -62 50 -27 -2 -145 -127 -158 -167 -11 -32 -10 -38 9 -58 16 -16 32 -21 65 -19 51 2 74 12 132 60 l42 33 10 -43 c26 -102 104 -115 182 -30 25 27 68 90 97 139 67 116 105 176 108 172 1 -2 -2 -34 -6 -73 -8 -68 -3 -261 8 -298 4 -17 -10 -18 -334 -12 -186 4 -352 8 -370 10 -17 1 -37 -2 -45 -6 -7 -5 -8 -9 -3 -9 6 0 4 -4 -4 -9 -9 -6 8 -10 51 -13 37 -1 64 0 61 5 -2 4 10 7 26 7 17 0 31 -4 31 -9 0 -10 100 -7 138 5 14 4 22 2 22 -5 0 -13 41 -10 74 4 10 4 21 4 25 -2 3 -5 51 -10 106 -11 55 -1 219 -9 365 -17 317 -18 436 -23 635 -30 83 -3 214 -8 293 -11 160 -7 153 -3 132 -89 -6 -22 -17 -76 -25 -120 -8 -44 -20 -100 -26 -125 -19 -80 -21 -107 -10 -115 24 -14 59 24 81 90 12 36 28 72 36 79 8 8 14 27 14 43 l0 28 -24 -30 c-30 -37 -38 -31 -26 21 5 23 12 63 15 90 3 27 9 65 13 84 l8 35 130 -2 c71 -2 228 -7 349 -13 326 -16 555 -3 555 32 0 25 -99 111 -159 139 -92 44 -97 46 -176 73 -38 13 -113 40 -165 60 -52 19 -116 41 -142 48 -52 13 -60 23 -28 31 18 5 19 8 9 31 -15 31 -32 38 -55 21 -15 -11 -16 -17 -7 -38 12 -25 11 -26 -25 -20 -20 2 -51 9 -69 14 -34 11 -133 8 -133 -3 0 -3 30 -9 68 -13 64 -6 203 -44 322 -86 30 -11 82 -29 115 -40 33 -11 78 -28 100 -38 22 -10 51 -22 65 -26 62 -18 199 -112 200 -136 0 -3 -33 -9 -72 -13 -40 -3 -92 -9 -115 -12 -23 -2 -153 2 -288 11 -136 8 -296 15 -356 15 -127 0 -118 -11 -95 130 8 47 17 101 20 120 6 43 40 153 100 325 52 151 74 233 87 328 8 59 6 80 -12 145 -12 43 -26 83 -31 90 -11 13 -31 16 -41 5z m45 -165 c3 -77 -3 -128 -24 -196 -11 -37 -27 -94 -35 -127 -17 -63 -52 -129 -39 -72 4 15 9 48 12 75 12 106 45 298 54 314 6 10 10 25 10 33 0 8 5 15 10 15 6 0 11 -19 12 -42z m-1182 -643 c-23 -36 -46 -65 -51 -65 -16 0 25 85 55 115 46 45 44 23 -4 -50z m405 -166 c20 -39 59 -77 93 -90 46 -18 105 31 147 124 15 32 29 57 31 55 2 -2 6 -22 9 -44 9 -64 46 -154 68 -166 44 -23 163 47 202 120 10 17 22 32 26 32 9 0 5 -33 -18 -133 l-15 -68 -87 5 c-47 3 -180 8 -296 11 -300 8 -463 15 -595 25 -63 6 -126 10 -138 10 -22 0 -20 4 24 53 l49 53 34 -23 c18 -13 46 -23 60 -23 42 0 123 44 159 84 18 21 34 37 36 35 1 -2 8 -18 15 -36 32 -80 78 -70 122 25 l32 67 12 -41 c7 -22 21 -56 30 -75z" transform="translate(0.000000,356.000000) scale(0.100000,-0.100000)"/></g></svg>